<svg xmlns="http://www.w3.org/2000/svg" viewBox="0 0 1920 600"><defs><style>.a{fill:#5ad196;}</style></defs><title>Artboard 1 copy 2</title><path class="a" d="M670.81,372.44l9-13.11c5.83-8.46,12.53-9,22.16-3.79,6.7,3.49,19.82,12.82,37.88,12.82,15.16,0,22.15-6.41,22.15-14.57,0-29.44-92.1-24.78-92.1-90.07,0-38.48,32.07-63.83,74.33-63.83,24.19,0,46.35,8.45,56.25,15.44,8.46,6.13,9.33,13.41,5,21.87l-7,13.7c-5.83,11.36-13.69,9.61-21.86,5.53-9.62-4.66-19.24-9.62-32.94-9.62-16,0-22.73,6.42-22.73,14.58,0,30.31,92.11,23,92.11,88.9,0,35-26.24,65-73.17,65-29.15,0-55.09-12-66.16-20.69C667.6,389.64,663.24,383.23,670.81,372.44Z"/><path class="a" d="M829.11,277.71c0-10.49,5.54-16,16-16h13.11c10.49,0,16,5.54,16,13.12V278a17.77,17.77,0,0,1-.28,2.92h.57s13.71-22.74,45.47-22.74c40.81,0,67.63,32.07,67.63,78.7,0,47.51-30,78.41-70,78.41-27.1,0-38.18-17.2-38.18-17.2H879s.58,5.25.58,12.83v43.14c0,10.49-5.53,16-16,16H845.15c-10.5,0-16-5.54-16-16Zm78.41,95.9c15.74,0,29.45-12.83,29.45-35.85,0-22.45-12-37-29.45-37-15.15,0-29.44,11.07-29.44,37C878.08,355.83,887.7,373.61,907.52,373.61Z"/><path class="a" d="M1083.31,258.18c47.51,0,85.4,31.77,85.4,79,0,46.93-37.89,78.12-85.11,78.12s-85.11-31.19-85.11-78.12C998.49,290,1036.38,258.18,1083.31,258.18Zm.29,115.14c18.36,0,34.11-13.7,34.11-36.15,0-22.73-15.75-37-34.11-37s-34.1,14.28-34.1,37C1049.5,359.62,1065.24,373.32,1083.6,373.32Z"/><path class="a" d="M1192.65,303.65h-4.38c-10.19,0-15.73-5.53-15.73-16v-7.29c0-10.49,5.54-16,16-16h5.53V237.2c0-10.5,5.55-16,16-16h16.91c10.49,0,16,5.54,16,16v27.1h15.46c10.49,0,16,5.54,16,16v7.29c0,10.5-5.53,16-15.73,16h-15.75v45.47c0,12.83,8.46,17.78,17.49,18.95,11.66,1.46,16,5,16,16v13.12c0,11.95-7.29,16-20.7,16-22.15,0-63.25-10.2-63.25-54.8Z"/><path class="a" d="M1387.36,261.68h18.36a16,16,0,0,1,16,16v118a16,16,0,0,1-16,16h-18.36a16,16,0,0,1-16-16V277.71A16,16,0,0,1,1387.36,261.68Z"/><rect class="a" x="1298.17" y="203.38" width="50.42" height="208.41" rx="16.03"/><path class="a" d="M1371.91,226.7v-7.28c0-10.5,5.54-16,16-16h17.2c10.5,0,16,5.54,16,16v7.28c0,10.5-5.53,16-16,16h-17.2C1377.45,242.73,1371.91,237.2,1371.91,226.7Z"/><path class="a" d="M1484.73,427a82.38,82.38,0,0,0,26.82,4.08c18.94,0,35.26-6.7,35.26-28.86V394.6c0-1.75.29-5.54.29-5.54h-.58c-8.16,11.95-19,18.36-36.73,18.36-46,0-68.49-37-68.49-75.49,0-38.19,21.85-73.75,68.78-73.75,32.07,0,41.11,19.53,41.11,19.53h.57a13.2,13.2,0,0,1-.29-2.91v-.59c0-7,5.55-12.53,16-12.53h13.7c10.49,0,16,5.54,16,16V398.09c0,54.8-44.59,74.91-82.78,74.91-17.49,0-35.55-3.49-44.59-7.28-9.91-4.08-12.54-10.5-8.74-20.7l3.2-8.74C1468.11,426.37,1473.94,423.45,1484.73,427ZM1548,332.51c0-26.52-14-32.35-29.15-32.35-17.78,0-26.82,12.82-26.82,30,0,18.65,8.75,35.27,28.86,35.27C1534,365.45,1548,358.74,1548,332.51Z"/><path class="a" d="M1617.1,219.42c0-10.5,5.54-16,16-16h18.36c10.49,0,16,5.54,16,16v49.84c0,7.58-.57,12.82-.57,12.82h.57c8.46-14.86,26-23.9,45.77-23.9,30.31,0,53.93,14,53.93,56.26v81.32c0,10.49-5.55,16-16,16h-18.37c-10.49,0-16-5.54-16-16v-72c0-14-5.54-19.83-16.62-19.83-21.86,0-32.65,17.2-32.65,40.23v51.59c0,10.49-5.53,16-16,16h-18.36c-10.5,0-16-5.54-16-16Z"/><path class="a" d="M1801.05,303.65h-4.37c-10.21,0-15.74-5.53-15.74-16v-7.29c0-10.49,5.53-16,16-16h5.54V237.2c0-10.5,5.54-16,16-16h16.9c10.49,0,16,5.54,16,16v27.1h15.44c10.49,0,16,5.54,16,16v7.29c0,10.5-5.55,16-15.74,16h-15.74v45.47c0,12.83,8.44,17.78,17.48,18.95,11.66,1.46,16,5,16,16v13.12c0,11.95-7.29,16-20.7,16-22.15,0-63.25-10.2-63.25-54.8Z"/><path class="a" d="M274.83,145.74c-78.56,8.78-142,71.78-151.19,150.28a171.44,171.44,0,0,0,31.94,122.15c12.06,16.47,38.13,8.07,38.13-12.34v-4.35a21.9,21.9,0,0,0-4.06-12.43A126.61,126.61,0,0,1,168,300.94c7.08-58,54.24-104.63,112.35-111A127.36,127.36,0,0,1,399.38,389.09a21.7,21.7,0,0,0-4,12.32v4.5c0,20,25.72,29,37.63,12.94a171.13,171.13,0,0,0,33.66-102.1C466.64,215.36,378.51,134.16,274.83,145.74Z"/><path class="a" d="M264.84,58.89c-121,13.5-217.34,111.82-228.68,233C26.36,396.79,79.41,490.55,162,539.79c14,8.35,31.76-1.86,31.76-18.15v-2.92a20.81,20.81,0,0,0-10-17.85C118.07,461.21,75.2,387.45,79.92,304.29c6.07-107,92.27-194.48,199.23-202,125.46-8.77,230.34,90.81,230.34,214.42,0,78-41.82,146.48-104.2,184.14a20.78,20.78,0,0,0-9.94,17.83v2.91a21.09,21.09,0,0,0,32,18c75.83-45.35,126.72-128.29,126.72-222.9C554.06,163.87,421.17,41.44,264.84,58.89Z"/><path class="a" d="M295.42,239.3c-43.35,0-78.35,33.42-78.35,77.53,0,10.13,2.9,25.29,6.27,34.2l72.22,149.88L367.77,351c3.39-8.91,6.27-24.06,6.27-34.2C374,272.72,338.77,239.3,295.42,239.3ZM295.56,357a39.25,39.25,0,1,1,39.24-39.24A39.24,39.24,0,0,1,295.56,357Z"/></svg>