<svg xmlns="http://www.w3.org/2000/svg" viewBox="0 0 600 600"><defs><style>.a{fill:#fff;}</style></defs><title>Artboard 1 copy 4</title><path class="a" d="M279.83,145.74c-78.56,8.78-142,71.78-151.19,150.28a171.44,171.44,0,0,0,31.94,122.15c12.06,16.47,38.13,8.07,38.13-12.34v-4.35a21.9,21.9,0,0,0-4.06-12.43A126.61,126.61,0,0,1,173,300.94c7.08-58,54.24-104.63,112.35-111A127.36,127.36,0,0,1,404.38,389.09a21.7,21.7,0,0,0-4,12.32v4.5c0,20,25.72,29,37.63,12.94a171.13,171.13,0,0,0,33.66-102.1C471.64,215.36,383.51,134.16,279.83,145.74Z"/><path class="a" d="M269.84,58.89c-121,13.5-217.34,111.82-228.68,233C31.36,396.79,84.41,490.55,167,539.79c14,8.35,31.76-1.86,31.76-18.15v-2.92a20.81,20.81,0,0,0-10-17.85C123.07,461.21,80.2,387.45,84.92,304.29c6.07-107,92.27-194.48,199.23-202,125.46-8.77,230.34,90.81,230.34,214.42,0,78-41.82,146.48-104.2,184.14a20.78,20.78,0,0,0-9.94,17.83v2.91a21.09,21.09,0,0,0,32,18c75.83-45.35,126.72-128.29,126.72-222.9C559.06,163.87,426.17,41.44,269.84,58.89Z"/><path class="a" d="M300.42,239.3c-43.35,0-78.35,33.42-78.35,77.53,0,10.13,2.9,25.29,6.27,34.2l72.22,149.88L372.77,351c3.39-8.91,6.27-24.06,6.27-34.2C379,272.72,343.77,239.3,300.42,239.3ZM300.56,357a39.25,39.25,0,1,1,39.24-39.24A39.24,39.24,0,0,1,300.56,357Z"/></svg>